<svg xmlns="http://www.w3.org/2000/svg" xmlns:xlink="http://www.w3.org/1999/xlink" width="350" zoomAndPan="magnify" viewBox="0 0 262.5 56.249996" height="75" preserveAspectRatio="xMidYMid meet" version="1.0"><defs><g/><clipPath id="4ae0fdea03"><path d="M 1.480469 8 L 38 8 L 38 40 L 1.480469 40 Z M 1.480469 8 " clip-rule="nonzero"/></clipPath><clipPath id="bab5fb687a"><path d="M 239 16 L 260.527344 16 L 260.527344 41 L 239 41 Z M 239 16 " clip-rule="nonzero"/></clipPath><clipPath id="e6a2088cf9"><path d="M 123.570312 13.359375 L 151.007812 13.359375 L 151.007812 41.535156 L 123.570312 41.535156 Z M 123.570312 13.359375 " clip-rule="nonzero"/></clipPath></defs><g clip-path="url(#4ae0fdea03)"><g fill="#ffffff" fill-opacity="1"><g transform="translate(-1.174923, 39.938297)"><g><path d="M 3.105469 0 L 8.4375 0 L 8.4375 -23.472656 L 8.832031 -23.472656 L 18.535156 0 L 23.039062 0 L 32.785156 -23.519531 L 33.136719 -23.519531 L 33.136719 0 L 38.46875 0 L 38.46875 -30.949219 L 30.90625 -30.949219 L 20.984375 -6.601562 L 20.632812 -6.601562 L 10.578125 -30.949219 L 3.105469 -30.949219 Z M 3.105469 0 "/></g></g></g></g><g fill="#ffffff" fill-opacity="1"><g transform="translate(39.776523, 39.938297)"><g><path d="M 13.8125 0.699219 C 19.148438 0.699219 23.78125 -2.1875 25.003906 -6.46875 L 20.632812 -7.167969 C 19.714844 -4.675781 17.046875 -2.886719 14.03125 -2.886719 C 9.921875 -2.886719 6.996094 -5.640625 6.644531 -9.75 L 25.703125 -9.75 L 25.746094 -11.101562 C 25.746094 -18.140625 20.9375 -22.90625 13.855469 -22.90625 C 6.644531 -22.90625 1.574219 -18.183594 1.574219 -11.148438 C 1.574219 -4.066406 6.601562 0.699219 13.8125 0.699219 Z M 6.601562 -12.632812 C 6.996094 -16.613281 9.792969 -19.367188 13.769531 -19.367188 C 17.617188 -19.367188 20.457031 -16.480469 20.71875 -12.632812 Z M 6.601562 -12.632812 "/></g></g></g><g fill="#ffffff" fill-opacity="1"><g transform="translate(66.392716, 39.938297)"><g><path d="M 12.152344 0.699219 C 15.910156 0.699219 18.710938 -1.136719 20.238281 -4.066406 L 20.589844 -4.066406 L 20.589844 0 L 25.527344 0 L 25.527344 -32.261719 L 20.589844 -32.261719 L 20.589844 -18.140625 L 20.238281 -18.140625 C 18.710938 -21.113281 15.910156 -22.90625 12.109375 -22.90625 C 5.902344 -22.90625 1.53125 -18.140625 1.53125 -11.101562 C 1.53125 -4.023438 5.859375 0.699219 12.152344 0.699219 Z M 13.640625 -3.539062 C 9.484375 -3.539062 6.511719 -6.730469 6.511719 -11.101562 C 6.511719 -15.476562 9.484375 -18.664062 13.640625 -18.664062 C 17.746094 -18.664062 20.765625 -15.476562 20.765625 -11.101562 C 20.765625 -6.730469 17.746094 -3.539062 13.640625 -3.539062 Z M 13.640625 -3.539062 "/></g></g></g><g fill="#ffffff" fill-opacity="1"><g transform="translate(94.14523, 39.938297)"><g><path d="M 3.148438 0 L 26.054688 0 L 26.054688 -4.457031 L 8.480469 -4.457031 L 8.480469 -13.988281 L 24.347656 -13.988281 L 24.347656 -17.746094 L 8.480469 -17.746094 L 8.480469 -26.535156 L 25.617188 -26.535156 L 25.617188 -30.949219 L 3.148438 -30.949219 Z M 3.148438 0 "/></g></g></g><g fill="#ffffff" fill-opacity="1"><g transform="translate(121.234744, 39.938297)"><g/></g></g><g fill="#ffffff" fill-opacity="1"><g transform="translate(131.330421, 39.938297)"><g/></g></g><g fill="#ffffff" fill-opacity="1"><g transform="translate(141.426098, 39.938297)"><g/></g></g><g fill="#ffffff" fill-opacity="1"><g transform="translate(151.512124, 39.938297)"><g><path d="M 2.886719 10.054688 L 7.824219 10.054688 L 7.824219 -4.066406 L 8.21875 -4.066406 C 9.75 -1.09375 12.546875 0.699219 16.304688 0.699219 C 22.511719 0.699219 26.882812 -4.066406 26.882812 -11.101562 C 26.882812 -18.183594 22.554688 -22.90625 16.304688 -22.90625 C 12.503906 -22.90625 9.75 -21.113281 8.21875 -18.140625 L 7.824219 -18.140625 L 7.824219 -22.207031 L 2.886719 -22.207031 Z M 14.777344 -3.539062 C 10.667969 -3.539062 7.648438 -6.730469 7.648438 -11.101562 C 7.648438 -15.476562 10.667969 -18.664062 14.777344 -18.664062 C 18.929688 -18.664062 21.902344 -15.476562 21.902344 -11.101562 C 21.902344 -6.730469 18.929688 -3.539062 14.777344 -3.539062 Z M 14.777344 -3.539062 "/></g></g></g><g fill="#ffffff" fill-opacity="1"><g transform="translate(179.264639, 39.938297)"><g><path d="M 13.8125 0.699219 C 19.148438 0.699219 23.78125 -2.1875 25.003906 -6.46875 L 20.632812 -7.167969 C 19.714844 -4.675781 17.046875 -2.886719 14.03125 -2.886719 C 9.921875 -2.886719 6.996094 -5.640625 6.644531 -9.75 L 25.703125 -9.75 L 25.746094 -11.101562 C 25.746094 -18.140625 20.9375 -22.90625 13.855469 -22.90625 C 6.644531 -22.90625 1.574219 -18.183594 1.574219 -11.148438 C 1.574219 -4.066406 6.601562 0.699219 13.8125 0.699219 Z M 6.601562 -12.632812 C 6.996094 -16.613281 9.792969 -19.367188 13.769531 -19.367188 C 17.617188 -19.367188 20.457031 -16.480469 20.71875 -12.632812 Z M 6.601562 -12.632812 "/></g></g></g><g fill="#ffffff" fill-opacity="1"><g transform="translate(205.880832, 39.938297)"><g><path d="M 2.886719 0 L 7.824219 0 L 7.824219 -11.671875 C 7.824219 -15.695312 9.878906 -18.359375 13.027344 -18.359375 C 14.121094 -18.359375 15.476562 -18.054688 16.699219 -17.441406 L 16.699219 -22.03125 C 15.824219 -22.425781 14.777344 -22.644531 13.769531 -22.644531 C 11.101562 -22.644531 9.222656 -21.113281 8.175781 -18.578125 L 7.824219 -18.578125 L 7.824219 -22.207031 L 2.886719 -22.207031 Z M 2.886719 0 "/></g></g></g><g fill="#ffffff" fill-opacity="1"><g transform="translate(222.925613, 39.938297)"><g><path d="M 10.839844 0.480469 C 12.109375 0.480469 13.769531 0.261719 14.90625 -0.132812 L 14.90625 -3.757812 C 14.121094 -3.539062 13.070312 -3.410156 12.285156 -3.410156 C 10.449219 -3.410156 9.265625 -4.765625 9.265625 -6.777344 L 9.222656 -18.535156 L 14.601562 -18.535156 L 14.601562 -22.207031 L 9.222656 -22.207031 L 9.265625 -29.027344 L 5.246094 -29.027344 L 4.457031 -22.207031 L 0.875 -22.207031 L 0.875 -18.535156 L 4.285156 -18.535156 L 4.285156 -6.601562 C 4.285156 -2.359375 6.863281 0.480469 10.839844 0.480469 Z M 10.839844 0.480469 "/></g></g></g><g clip-path="url(#bab5fb687a)"><g fill="#ffffff" fill-opacity="1"><g transform="translate(238.353309, 39.938297)"><g><path d="M 11.757812 0.785156 C 17.746094 0.785156 21.8125 -1.96875 21.8125 -6.425781 C 21.8125 -11.714844 16.917969 -12.503906 12.765625 -13.070312 C 9.484375 -13.507812 6.46875 -13.8125 6.46875 -16.613281 C 6.46875 -18.492188 8.4375 -19.800781 11.234375 -19.800781 C 14.425781 -19.800781 16.566406 -18.140625 16.566406 -15.605469 L 21.027344 -15.605469 C 21.027344 -20.109375 16.960938 -22.992188 11.234375 -22.992188 C 5.640625 -22.992188 1.878906 -20.285156 1.878906 -16.128906 C 1.878906 -10.578125 6.949219 -10.011719 10.929688 -9.53125 C 14.03125 -9.136719 16.875 -8.875 16.875 -5.859375 C 16.875 -3.757812 14.730469 -2.402344 11.804688 -2.402344 C 8.261719 -2.402344 5.859375 -4.328125 5.8125 -7.082031 L 1.53125 -7.082031 C 1.53125 -2.359375 5.59375 0.785156 11.757812 0.785156 Z M 11.757812 0.785156 "/></g></g></g></g><g clip-path="url(#e6a2088cf9)"><path fill="#ffffff" d="M 141.261719 41.503906 L 133.320312 41.503906 L 133.320312 35.265625 L 128.277344 38.960938 L 123.574219 32.582031 L 130.585938 27.445312 L 123.574219 22.3125 L 128.277344 15.933594 L 133.320312 19.628906 L 133.320312 13.390625 L 141.261719 13.390625 L 141.261719 19.628906 L 146.304688 15.933594 L 151.007812 22.3125 L 143.996094 27.445312 L 151.007812 32.582031 L 146.304688 38.960938 L 141.261719 35.265625 Z M 134.003906 40.824219 L 140.578125 40.824219 L 140.578125 33.917969 L 146.160156 38.003906 L 150.050781 32.726562 L 142.839844 27.445312 L 150.050781 22.167969 L 146.15625 16.886719 L 140.578125 20.976562 L 140.578125 14.070312 L 134.003906 14.070312 L 134.003906 20.976562 L 128.421875 16.886719 L 124.53125 22.167969 L 131.742188 27.445312 L 124.53125 32.726562 L 128.421875 38.007812 L 134.003906 33.917969 Z M 134.003906 40.824219 " fill-opacity="1" fill-rule="nonzero"/></g><path fill="#ffffff" d="M 138.695312 18.507812 C 138.695312 18.695312 138.660156 18.871094 138.585938 19.042969 C 138.515625 19.214844 138.414062 19.367188 138.28125 19.496094 C 138.152344 19.628906 138 19.730469 137.828125 19.800781 C 137.65625 19.871094 137.476562 19.90625 137.289062 19.90625 C 137.105469 19.90625 136.925781 19.871094 136.753906 19.800781 C 136.582031 19.730469 136.429688 19.628906 136.296875 19.496094 C 136.167969 19.367188 136.066406 19.214844 135.992188 19.042969 C 135.921875 18.871094 135.886719 18.695312 135.886719 18.507812 C 135.886719 18.324219 135.921875 18.144531 135.992188 17.972656 C 136.066406 17.800781 136.167969 17.652344 136.296875 17.519531 C 136.429688 17.386719 136.582031 17.285156 136.753906 17.214844 C 136.925781 17.144531 137.105469 17.109375 137.289062 17.109375 C 137.476562 17.109375 137.65625 17.144531 137.828125 17.214844 C 138 17.285156 138.152344 17.386719 138.28125 17.519531 C 138.414062 17.652344 138.515625 17.800781 138.585938 17.972656 C 138.660156 18.144531 138.695312 18.324219 138.695312 18.507812 Z M 138.695312 18.507812 " fill-opacity="1" fill-rule="nonzero"/><path fill="#ffffff" d="M 137.289062 20.25 C 136.328125 20.25 135.546875 19.46875 135.546875 18.507812 C 135.546875 17.550781 136.328125 16.769531 137.289062 16.769531 C 138.253906 16.769531 139.035156 17.550781 139.035156 18.507812 C 139.035156 19.46875 138.253906 20.25 137.289062 20.25 Z M 137.289062 17.449219 C 136.707031 17.449219 136.230469 17.925781 136.230469 18.507812 C 136.230469 19.089844 136.707031 19.566406 137.289062 19.566406 C 137.875 19.566406 138.351562 19.089844 138.351562 18.507812 C 138.351562 17.925781 137.875 17.449219 137.289062 17.449219 Z M 137.289062 17.449219 " fill-opacity="1" fill-rule="nonzero"/><path fill="#ffffff" d="M 137.289062 36.96875 C 137.101562 36.96875 136.949219 36.816406 136.949219 36.625 L 136.949219 19.90625 C 136.949219 19.71875 137.101562 19.566406 137.289062 19.566406 C 137.480469 19.566406 137.632812 19.71875 137.632812 19.90625 L 137.632812 36.625 C 137.632812 36.816406 137.480469 36.96875 137.289062 36.96875 Z M 137.289062 36.96875 " fill-opacity="1" fill-rule="nonzero"/><path fill="#ffffff" d="M 138.164062 35.238281 C 138.109375 35.238281 138.054688 35.226562 138.003906 35.199219 C 137.746094 35.0625 137.445312 34.933594 137.15625 34.8125 C 136.222656 34.414062 135.164062 33.964844 135.164062 32.984375 C 135.164062 32 136.222656 31.550781 137.15625 31.152344 C 137.96875 30.808594 138.734375 30.484375 138.734375 29.953125 C 138.734375 29.421875 137.96875 29.09375 137.15625 28.75 C 136.222656 28.355469 135.164062 27.90625 135.164062 26.921875 C 135.164062 25.9375 136.222656 25.488281 137.15625 25.09375 C 137.96875 24.75 138.734375 24.425781 138.734375 23.894531 C 138.734375 23.359375 137.96875 23.035156 137.15625 22.691406 C 136.222656 22.296875 135.164062 21.847656 135.164062 20.863281 C 135.164062 20.675781 135.316406 20.523438 135.503906 20.523438 C 135.695312 20.523438 135.847656 20.675781 135.847656 20.863281 C 135.847656 21.394531 136.613281 21.71875 137.425781 22.0625 C 138.359375 22.460938 139.417969 22.910156 139.417969 23.894531 C 139.417969 24.875 138.359375 25.324219 137.425781 25.722656 C 136.613281 26.066406 135.847656 26.390625 135.847656 26.921875 C 135.847656 27.453125 136.613281 27.777344 137.425781 28.125 C 138.359375 28.519531 139.417969 28.96875 139.417969 29.953125 C 139.417969 30.933594 138.359375 31.386719 137.425781 31.78125 C 136.613281 32.125 135.847656 32.449219 135.847656 32.984375 C 135.847656 33.515625 136.613281 33.839844 137.425781 34.183594 C 137.730469 34.3125 138.042969 34.445312 138.324219 34.597656 C 138.492188 34.6875 138.554688 34.894531 138.464844 35.058594 C 138.402344 35.175781 138.285156 35.238281 138.164062 35.238281 Z M 138.164062 35.238281 " fill-opacity="1" fill-rule="nonzero"/></svg>