<svg xmlns="http://www.w3.org/2000/svg" xmlns:xlink="http://www.w3.org/1999/xlink" width="400" zoomAndPan="magnify" viewBox="0 0 300 56.249996" height="75" preserveAspectRatio="xMidYMid meet" version="1.0"><defs><g/><clipPath id="6613a086f4"><path d="M 143.65625 12.265625 L 174 12.265625 L 174 43.351562 L 143.65625 43.351562 Z M 143.65625 12.265625 " clip-rule="nonzero"/></clipPath></defs><g fill="#ffffff" fill-opacity="1"><g transform="translate(4.819239, 40.375135)"><g><path d="M 3.449219 0 L 9.378906 0 L 9.378906 -26.101562 L 9.816406 -26.101562 L 20.609375 0 L 25.613281 0 L 36.453125 -26.148438 L 36.84375 -26.148438 L 36.84375 0 L 42.773438 0 L 42.773438 -34.410156 L 34.363281 -34.410156 L 23.332031 -7.339844 L 22.941406 -7.339844 L 11.761719 -34.410156 L 3.449219 -34.410156 Z M 3.449219 0 "/></g></g></g><g fill="#ffffff" fill-opacity="1"><g transform="translate(50.351793, 40.375135)"><g><path d="M 15.359375 0.777344 C 21.289062 0.777344 26.441406 -2.429688 27.800781 -7.195312 L 22.941406 -7.972656 C 21.921875 -5.199219 18.957031 -3.207031 15.601562 -3.207031 C 11.035156 -3.207031 7.777344 -6.269531 7.386719 -10.839844 L 28.578125 -10.839844 L 28.628906 -12.34375 C 28.628906 -20.171875 23.28125 -25.46875 15.40625 -25.46875 C 7.386719 -25.46875 1.75 -20.21875 1.75 -12.394531 C 1.75 -4.519531 7.339844 0.777344 15.359375 0.777344 Z M 7.339844 -14.046875 C 7.777344 -18.46875 10.886719 -21.53125 15.308594 -21.53125 C 19.585938 -21.53125 22.746094 -18.324219 23.039062 -14.046875 Z M 7.339844 -14.046875 "/></g></g></g><g fill="#ffffff" fill-opacity="1"><g transform="translate(79.945455, 40.375135)"><g><path d="M 13.511719 0.777344 C 17.691406 0.777344 20.800781 -1.265625 22.503906 -4.519531 L 22.894531 -4.519531 L 22.894531 0 L 28.386719 0 L 28.386719 -35.871094 L 22.894531 -35.871094 L 22.894531 -20.171875 L 22.503906 -20.171875 C 20.800781 -23.476562 17.691406 -25.46875 13.464844 -25.46875 C 6.5625 -25.46875 1.699219 -20.171875 1.699219 -12.34375 C 1.699219 -4.472656 6.511719 0.777344 13.511719 0.777344 Z M 15.164062 -3.9375 C 10.546875 -3.9375 7.242188 -7.484375 7.242188 -12.34375 C 7.242188 -17.207031 10.546875 -20.753906 15.164062 -20.753906 C 19.734375 -20.753906 23.085938 -17.207031 23.085938 -12.34375 C 23.085938 -7.484375 19.734375 -3.9375 15.164062 -3.9375 Z M 15.164062 -3.9375 "/></g></g></g><g fill="#ffffff" fill-opacity="1"><g transform="translate(110.802555, 40.375135)"><g><path d="M 3.5 0 L 28.96875 0 L 28.96875 -4.957031 L 9.429688 -4.957031 L 9.429688 -15.554688 L 27.074219 -15.554688 L 27.074219 -19.734375 L 9.429688 -19.734375 L 9.429688 -29.503906 L 28.480469 -29.503906 L 28.480469 -34.410156 L 3.5 -34.410156 Z M 3.5 0 "/></g></g></g><g fill="#ffffff" fill-opacity="1"><g transform="translate(140.922486, 40.375135)"><g/></g></g><g fill="#ffffff" fill-opacity="1"><g transform="translate(152.147535, 40.375135)"><g/></g></g><g fill="#ffffff" fill-opacity="1"><g transform="translate(163.372583, 40.375135)"><g/></g></g><g fill="#ffffff" fill-opacity="1"><g transform="translate(174.586901, 40.375135)"><g><path d="M 3.207031 11.179688 L 8.699219 11.179688 L 8.699219 -4.519531 L 9.136719 -4.519531 C 10.839844 -1.214844 13.949219 0.777344 18.128906 0.777344 C 25.03125 0.777344 29.890625 -4.519531 29.890625 -12.34375 C 29.890625 -20.21875 25.078125 -25.46875 18.128906 -25.46875 C 13.902344 -25.46875 10.839844 -23.476562 9.136719 -20.171875 L 8.699219 -20.171875 L 8.699219 -24.691406 L 3.207031 -24.691406 Z M 16.429688 -3.9375 C 11.859375 -3.9375 8.503906 -7.484375 8.503906 -12.34375 C 8.503906 -17.207031 11.859375 -20.753906 16.429688 -20.753906 C 21.046875 -20.753906 24.351562 -17.207031 24.351562 -12.34375 C 24.351562 -7.484375 21.046875 -3.9375 16.429688 -3.9375 Z M 16.429688 -3.9375 "/></g></g></g><g fill="#ffffff" fill-opacity="1"><g transform="translate(205.444002, 40.375135)"><g><path d="M 15.359375 0.777344 C 21.289062 0.777344 26.441406 -2.429688 27.800781 -7.195312 L 22.941406 -7.972656 C 21.921875 -5.199219 18.957031 -3.207031 15.601562 -3.207031 C 11.035156 -3.207031 7.777344 -6.269531 7.386719 -10.839844 L 28.578125 -10.839844 L 28.628906 -12.34375 C 28.628906 -20.171875 23.28125 -25.46875 15.40625 -25.46875 C 7.386719 -25.46875 1.75 -20.21875 1.75 -12.394531 C 1.75 -4.519531 7.339844 0.777344 15.359375 0.777344 Z M 7.339844 -14.046875 C 7.777344 -18.46875 10.886719 -21.53125 15.308594 -21.53125 C 19.585938 -21.53125 22.746094 -18.324219 23.039062 -14.046875 Z M 7.339844 -14.046875 "/></g></g></g><g fill="#ffffff" fill-opacity="1"><g transform="translate(235.037663, 40.375135)"><g><path d="M 3.207031 0 L 8.699219 0 L 8.699219 -12.976562 C 8.699219 -17.449219 10.984375 -20.414062 14.484375 -20.414062 C 15.699219 -20.414062 17.207031 -20.074219 18.566406 -19.394531 L 18.566406 -24.496094 C 17.59375 -24.933594 16.429688 -25.175781 15.308594 -25.175781 C 12.34375 -25.175781 10.253906 -23.476562 9.089844 -20.65625 L 8.699219 -20.65625 L 8.699219 -24.691406 L 3.207031 -24.691406 Z M 3.207031 0 "/></g></g></g><g fill="#ffffff" fill-opacity="1"><g transform="translate(253.98919, 40.375135)"><g><path d="M 12.054688 0.535156 C 13.464844 0.535156 15.308594 0.292969 16.574219 -0.144531 L 16.574219 -4.179688 C 15.699219 -3.9375 14.53125 -3.792969 13.65625 -3.792969 C 11.617188 -3.792969 10.304688 -5.296875 10.304688 -7.535156 L 10.253906 -20.609375 L 16.234375 -20.609375 L 16.234375 -24.691406 L 10.253906 -24.691406 L 10.304688 -32.273438 L 5.832031 -32.273438 L 4.957031 -24.691406 L 0.972656 -24.691406 L 0.972656 -20.609375 L 4.761719 -20.609375 L 4.761719 -7.339844 C 4.761719 -2.625 7.632812 0.535156 12.054688 0.535156 Z M 12.054688 0.535156 "/></g></g></g><g fill="#ffffff" fill-opacity="1"><g transform="translate(271.142734, 40.375135)"><g><path d="M 13.074219 0.875 C 19.734375 0.875 24.253906 -2.1875 24.253906 -7.144531 C 24.253906 -13.027344 18.808594 -13.902344 14.191406 -14.53125 C 10.546875 -15.019531 7.195312 -15.359375 7.195312 -18.46875 C 7.195312 -20.558594 9.378906 -22.019531 12.492188 -22.019531 C 16.039062 -22.019531 18.421875 -20.171875 18.421875 -17.351562 L 23.378906 -17.351562 C 23.378906 -22.359375 18.859375 -25.566406 12.492188 -25.566406 C 6.269531 -25.566406 2.089844 -22.550781 2.089844 -17.933594 C 2.089844 -11.761719 7.726562 -11.128906 12.152344 -10.597656 C 15.601562 -10.160156 18.761719 -9.867188 18.761719 -6.511719 C 18.761719 -4.179688 16.378906 -2.671875 13.125 -2.671875 C 9.1875 -2.671875 6.511719 -4.8125 6.464844 -7.875 L 1.699219 -7.875 C 1.699219 -2.625 6.222656 0.875 13.074219 0.875 Z M 13.074219 0.875 "/></g></g></g><g clip-path="url(#6613a086f4)"><path fill="#ffffff" d="M 163.21875 43.320312 L 154.4375 43.320312 L 154.4375 36.4375 L 148.859375 40.511719 L 143.660156 33.472656 L 151.410156 27.808594 L 143.660156 22.144531 L 148.859375 15.105469 L 154.4375 19.179688 L 154.4375 12.296875 L 163.21875 12.296875 L 163.21875 19.179688 L 168.796875 15.105469 L 173.996094 22.144531 L 166.246094 27.808594 L 173.996094 33.472656 L 168.796875 40.511719 L 163.21875 36.4375 Z M 155.195312 42.566406 L 162.460938 42.566406 L 162.460938 34.949219 L 168.636719 39.460938 L 172.941406 33.632812 L 164.96875 27.808594 L 172.9375 21.984375 L 168.636719 16.15625 L 162.460938 20.667969 L 162.460938 13.050781 L 155.195312 13.050781 L 155.195312 20.667969 L 149.019531 16.15625 L 144.71875 21.984375 L 152.691406 27.808594 L 144.71875 33.632812 L 149.019531 39.460938 L 155.195312 34.949219 Z M 155.195312 42.566406 " fill-opacity="1" fill-rule="nonzero"/></g><path fill="#ffffff" d="M 160.378906 17.945312 C 160.378906 18.148438 160.339844 18.347656 160.261719 18.535156 C 160.183594 18.726562 160.070312 18.890625 159.925781 19.035156 C 159.78125 19.183594 159.613281 19.292969 159.421875 19.371094 C 159.234375 19.449219 159.035156 19.488281 158.828125 19.488281 C 158.621094 19.488281 158.425781 19.449219 158.234375 19.371094 C 158.042969 19.292969 157.875 19.183594 157.730469 19.035156 C 157.585938 18.890625 157.472656 18.726562 157.394531 18.535156 C 157.316406 18.347656 157.277344 18.148438 157.277344 17.945312 C 157.277344 17.742188 157.316406 17.542969 157.394531 17.355469 C 157.472656 17.164062 157.585938 17 157.730469 16.855469 C 157.875 16.710938 158.042969 16.597656 158.234375 16.519531 C 158.425781 16.441406 158.621094 16.402344 158.828125 16.402344 C 159.035156 16.402344 159.234375 16.441406 159.421875 16.519531 C 159.613281 16.597656 159.78125 16.710938 159.925781 16.855469 C 160.070312 17 160.183594 17.164062 160.261719 17.355469 C 160.339844 17.542969 160.378906 17.742188 160.378906 17.945312 Z M 160.378906 17.945312 " fill-opacity="1" fill-rule="nonzero"/><path fill="#ffffff" d="M 158.828125 19.867188 C 157.765625 19.867188 156.898438 19.003906 156.898438 17.945312 C 156.898438 16.886719 157.765625 16.027344 158.828125 16.027344 C 159.894531 16.027344 160.757812 16.886719 160.757812 17.945312 C 160.757812 19.003906 159.894531 19.867188 158.828125 19.867188 Z M 158.828125 16.777344 C 158.183594 16.777344 157.65625 17.300781 157.65625 17.945312 C 157.65625 18.589844 158.183594 19.113281 158.828125 19.113281 C 159.476562 19.113281 160.003906 18.589844 160.003906 17.945312 C 160.003906 17.300781 159.476562 16.777344 158.828125 16.777344 Z M 158.828125 16.777344 " fill-opacity="1" fill-rule="nonzero"/><path fill="#ffffff" d="M 158.828125 38.3125 C 158.621094 38.3125 158.449219 38.144531 158.449219 37.9375 L 158.449219 19.488281 C 158.449219 19.28125 158.621094 19.113281 158.828125 19.113281 C 159.039062 19.113281 159.207031 19.28125 159.207031 19.488281 L 159.207031 37.9375 C 159.207031 38.144531 159.039062 38.3125 158.828125 38.3125 Z M 158.828125 38.3125 " fill-opacity="1" fill-rule="nonzero"/><path fill="#ffffff" d="M 159.792969 36.40625 C 159.734375 36.40625 159.671875 36.390625 159.617188 36.363281 C 159.335938 36.210938 159 36.070312 158.679688 35.933594 C 157.648438 35.496094 156.476562 35 156.476562 33.917969 C 156.476562 32.832031 157.648438 32.335938 158.679688 31.898438 C 159.578125 31.519531 160.425781 31.160156 160.425781 30.574219 C 160.425781 29.984375 159.578125 29.628906 158.679688 29.246094 C 157.648438 28.808594 156.476562 28.3125 156.476562 27.230469 C 156.476562 26.144531 157.648438 25.648438 158.679688 25.210938 C 159.578125 24.832031 160.425781 24.472656 160.425781 23.886719 C 160.425781 23.300781 159.578125 22.941406 158.679688 22.5625 C 157.648438 22.125 156.476562 21.628906 156.476562 20.542969 C 156.476562 20.335938 156.644531 20.167969 156.855469 20.167969 C 157.0625 20.167969 157.230469 20.335938 157.230469 20.542969 C 157.230469 21.128906 158.078125 21.488281 158.976562 21.867188 C 160.011719 22.304688 161.179688 22.800781 161.179688 23.886719 C 161.179688 24.972656 160.011719 25.46875 158.976562 25.90625 C 158.078125 26.285156 157.230469 26.644531 157.230469 27.230469 C 157.230469 27.816406 158.078125 28.175781 158.976562 28.554688 C 160.011719 28.992188 161.179688 29.488281 161.179688 30.574219 C 161.179688 31.65625 160.011719 32.152344 158.976562 32.589844 C 158.078125 32.972656 157.230469 33.328125 157.230469 33.917969 C 157.230469 34.503906 158.078125 34.863281 158.976562 35.242188 C 159.3125 35.382812 159.664062 35.53125 159.972656 35.699219 C 160.15625 35.796875 160.226562 36.023438 160.128906 36.207031 C 160.058594 36.335938 159.929688 36.40625 159.792969 36.40625 Z M 159.792969 36.40625 " fill-opacity="1" fill-rule="nonzero"/></svg>